<svg id="Camada_1" data-name="Camada 1" xmlns="http://www.w3.org/2000/svg" viewBox="0 0 126.07 50"><defs><style>.cls-1{fill:#fff;}.cls-2{fill:#1a171b;}</style></defs><rect class="cls-1" x="-5874.96" y="-1524.25" width="12135" height="6733"/><path class="cls-2" d="M113.66,39.51l-1.09-.15V21.08a1.28,1.28,0,0,0-1.32-1.33l-7.45-.11c-3.16,0-4.22-2.08-4.23-5.29h8.06a1.39,1.39,0,0,0,1.43-1.5c0-3.18-1.34-6.57-5.8-6.57-4.73,0-6.88,3.47-6.88,8.3s2.22,7.6,6.89,7.6l6.24,0v4.5a6.19,6.19,0,0,0-3.15-.92c-4.41,0-7.25,3.49-7.25,8.48,0,4.63,2.32,7.55,6.16,7.55A5.9,5.9,0,0,0,109.59,40v.65a1.11,1.11,0,0,0,1.13,1.14l2.93-.27a1,1,0,0,0,.88-1A1,1,0,0,0,113.66,39.51ZM102.92,8.34c2,0,2.89,1.5,2.91,3.82l-6.23.38C99.78,10.06,100.62,8.34,102.92,8.34Zm6.59,30.21a6.56,6.56,0,0,1-2.9.77c-2.94,0-4.21-2-4.21-5.51S104.14,28,107.16,28a6.06,6.06,0,0,1,2.35.52Z"/><path class="cls-2" d="M11,14.81c3.38,2.1,6.3,4.34,6.3,4.34s2.91-2.24,6.28-4.34c3.87-2.39,5.59-5.05,5.59-8.25S27.35.42,23.52,0A5.3,5.3,0,0,0,19,2a8.31,8.31,0,0,0-1.63,3.5A8.26,8.26,0,0,0,15.68,2,5.31,5.31,0,0,0,11.1,0C7.29.42,5.44,3.36,5.44,6.56S7.17,12.42,11,14.81"/><path class="cls-2" d="M6.74,16l-.19.1-5.29,3A2.66,2.66,0,0,0,0,21.23L0,39.08A2.39,2.39,0,0,0,1.22,41l4.94,2.9,0-19.08a2.67,2.67,0,0,1,1.23-2.08l5.35-3.08Z"/><path class="cls-2" d="M28.07,16l.19.1,5.3,3a2.66,2.66,0,0,1,1.22,2.08l0,17.85A2.37,2.37,0,0,1,33.59,41l-4.94,2.9.05-19.08a2.66,2.66,0,0,0-1.22-2.08l-5.35-3.08Z"/><path class="cls-2" d="M22.61,25.48l-5.3-3.23L12,25.53a2.66,2.66,0,0,0-1.22,2.09v19l5.5,3.17a2.43,2.43,0,0,0,1.14.26,2.46,2.46,0,0,0,1.14-.26L24,46.52l-.13-19a2.66,2.66,0,0,0-1.22-2.09"/><path class="cls-2" d="M73.53,8.41c-2.83,0-3.69,2.54-3.69,5.88,0,3.93,1.18,5.78,3.65,5.78s3.73-1.89,3.73-5.83c0-3.46-.78-5.83-3.69-5.83m.19-2.13c4.26,0,6.85,3,6.85,7.71,0,4.94-2.7,8.19-7.2,8.19-4.24,0-6.85-3-6.85-7.72,0-4.91,2.72-8.18,7.2-8.18"/><path class="cls-2" d="M62.42,19.26l.27-1.11a1.66,1.66,0,0,1,1.59-1.25,1.27,1.27,0,0,1,1.28,1.28v1.74a1.64,1.64,0,0,1-1.63,1.63H52.2a1,1,0,0,1-1-1,1.17,1.17,0,0,1,1-1.15l1-.2V3.25l-1-.21a1.15,1.15,0,0,1-1-1.15,1,1,0,0,1,1-1h2.45c1.82,0,1.74,2.36,1.74,2.36v16Z"/><path class="cls-2" d="M95.54,6.63H93.45c-1.09,0-1.13.78-1.33,1.41-.05.14-3.6,11.22-3.6,11.22S85.25,8.55,85.08,8s-.25-1.41-1.34-1.41H81.22a.91.91,0,0,0-.91.9,1.13,1.13,0,0,0,.89,1.1l.84.19,4.22,12.1a2.08,2.08,0,0,0,2,1.45,2.14,2.14,0,0,0,2-1.44L94.71,8.82l.85-.19a1.13,1.13,0,0,0,.88-1.1.9.9,0,0,0-.9-.9"/><path class="cls-2" d="M58.86,39.23V28.16L57.78,28a1,1,0,0,1-.88-1,1,1,0,0,1,.88-1l2.93-.29a1.11,1.11,0,0,1,1.13,1.14v.84a5.63,5.63,0,0,1,4.27-2c1.27,0,2.1.52,2.1,1.85V28.7A1.19,1.19,0,0,1,67,29.89,2,2,0,0,1,65.26,29l-.33-.54a3.58,3.58,0,0,0-3,1.51v9.3l1.49.22a1.08,1.08,0,0,1,.89,1,.9.9,0,0,1-.9.91h-5.6a.91.91,0,0,1-.91-.91,1.09,1.09,0,0,1,.89-1.06Z"/><path class="cls-2" d="M120.91,27.79c-1.4,0-2.54.58-2.54,1.87,0,2.5,7.7,2.71,7.7,7.25,0,3-2.16,4.86-5.59,4.86-1.54,0-5-.13-5-2.4v-.73a1.3,1.3,0,0,1,1.29-1.28,1.75,1.75,0,0,1,1.67,1.23l.32,1a3.45,3.45,0,0,0,1.25.18c1.68,0,3-.65,3-2.23,0-3-7.69-2.73-7.69-7.4,0-2.76,2.11-4.37,5.4-4.37,1.49,0,4.74.12,4.74,2.37v.76a1.28,1.28,0,0,1-1.28,1.28,1.75,1.75,0,0,1-1.67-1.23l-.3-.92a3.16,3.16,0,0,0-1.29-.21"/><path class="cls-2" d="M77,38.62a6.12,6.12,0,0,1-2.93.8c-1.53,0-2.7-.78-2.7-2.45,0-1.94,1.54-2.68,3.67-2.79l2-.09Zm20.7.89-.94-.19V30.91c0-3.49-1.38-5.27-4.93-5.27a6.31,6.31,0,0,0-4.45,1.73v-.58a1.13,1.13,0,0,0-1.15-1.15l-3,.29a1,1,0,0,0-.88,1,1,1,0,0,0,.88,1l1.11.15V39.31s-.27.37-2.21.38-2.06-.24-2.06-.24V31.12c0-3.26-.54-5.48-5-5.48-2.29,0-5.52.51-5.53,3v.24a1.22,1.22,0,0,0,1.27,1.21,1.78,1.78,0,0,0,1.72-1.25l.29-.88a3.22,3.22,0,0,1,1.48-.31c2,0,2.69,1,2.69,3.24v1.3H75.68c-4.52,0-7.57.93-7.57,5,0,2.87,2,4.65,4.91,4.65a5.07,5.07,0,0,0,4.06-1.82v.57c0,.61.56.93,1.49.93,0,0,2.68-.08,3.74-.08s3.67.08,3.67.08c1.87,0,1.49-2.24,1.49-2.24V29.93a3.67,3.67,0,0,1,3.15-1.87c2.45,0,3,1.21,3,4.15v7.11l-1,.19a1.09,1.09,0,0,0-.89,1.09.92.92,0,0,0,.91.92h5a.92.92,0,0,0,.91-.92,1.12,1.12,0,0,0-.89-1.09"/><path class="cls-2" d="M47.76,39.69a6.45,6.45,0,0,1-2.27-.47V28.93a5.72,5.72,0,0,1,3-.79c2.94,0,4.19,2.1,4.19,5.56,0,3.75-1.65,6-4.89,6m2-14a5.86,5.86,0,0,0-4.23,1.63V22l1-.15a1,1,0,0,0,.89-1,1,1,0,0,0-.9-1l-2.81-.27a1.29,1.29,0,0,0-1.34,1.34V39.31c0,2.26,3.57,2.62,6.2,2.62,4.29,0,7.39-3.16,7.39-8.65,0-4.31-2.13-7.6-6.24-7.6"/><path class="cls-2" d="M113.54,8.33A1.66,1.66,0,0,1,111.85,10a1.66,1.66,0,1,1,0-3.32A1.65,1.65,0,0,1,113.54,8.33Zm-3,0a1.27,1.27,0,0,0,1.28,1.31,1.26,1.26,0,0,0,1.26-1.3,1.27,1.27,0,1,0-2.54,0Zm1,.86h-.38V7.54a3.32,3.32,0,0,1,.63,0,1,1,0,0,1,.58.12.45.45,0,0,1,.16.36.42.42,0,0,1-.34.39v0a.48.48,0,0,1,.3.4,1.25,1.25,0,0,0,.12.41h-.41a1.7,1.7,0,0,1-.14-.4c0-.18-.13-.26-.34-.26h-.18Zm0-.93h.18c.21,0,.39-.07.39-.25s-.12-.25-.36-.25l-.21,0Z"/></svg>