<svg id="Camada_1" data-name="Camada 1" xmlns="http://www.w3.org/2000/svg" viewBox="0 0 137.41 50"><defs><style>.cls-1{fill:#fff;}.cls-2{fill:#1a171b;}</style></defs><rect class="cls-1" x="-6043.34" y="-1524.25" width="12135" height="6733"/><path class="cls-2" d="M128.12,16.53h-.78a4.93,4.93,0,0,0-2.81,1.79,6.73,6.73,0,0,0-1.16,4V38.83c0,5.84,2.61,8.77,8.62,8.77,3.1,0,5.13-1.12,5.13-3.27V42.82h-.27a9,9,0,0,1-4.22.71c-2.94,0-4.43-1.54-4.43-5.14V25.8h5.67c2.42,0,3.54-1.05,3.54-2.63V21.74h-9.29Z"/><path class="cls-2" d="M111.11,43.49c-5.07,0-8.21-3-8.67-7.21h6.69c9.26,0,11.49-1.84,11.49-6.3,0-5.09-5-8.81-10.21-8.81-7.22,0-12.69,5.45-12.69,13.63,0,7.29,5.27,12.65,12.74,12.65,6.08,0,9.1-2,9.1-4.69V40.87h-.24c-1.53,1.39-4.07,2.62-8.21,2.62m-8.67-11.66a7.33,7.33,0,0,1,7.43-6.8c4.28,0,6.3,2.42,6.3,5.18,0,1.9-1.11,2.46-7.65,2.56l-6.14.09Z"/><path class="cls-2" d="M73.61,36.06V24.93c0-2.3-1.32-3.37-3.56-3.37H68.78V35.62c0,5.49-1.91,7-6.15,7-3.94,0-6.47-2-6.47-7.21V24.93c0-2.23-1.1-3.37-3.15-3.37H51.35v14.1c0,7.47,4.38,11.79,11,11.79,7.2,0,11.28-3.92,11.28-11.39"/><path class="cls-2" d="M98.51,45.19c-1.46-.33-2.48-.91-4.79-3.2a80,80,0,0,1-7.35-8.52c7.5-7.92,9.72-9.58,12.24-11.48v-.25H95.43c-1.76,0-2.62.16-3.53,1A104.16,104.16,0,0,0,82,32.86V15.76c0-1.89-1.42-2.85-3.38-2.85H77.21v30.8c0,2.33,1,3.43,3,3.43H82V34.72c3.15,3.7,6.37,7.76,9.89,11.14a4.64,4.64,0,0,0,3.53,1.43c2.43,0,2.72-.81,3.08-2.1"/><path class="cls-2" d="M25,0A25,25,0,1,0,50,25,25,25,0,0,0,25,0ZM36.76,36.41c-5.09,0-7.62-2.38-7.62-5.16a3.67,3.67,0,0,1,.51-2.07s1.72,2.68,6.87,2.68a6.74,6.74,0,0,0,6.86-6.45c0-3.39-2.91-6.2-8.13-6.2h-7.9V47.14H25.47a2.63,2.63,0,0,1-2.94-2.86V14.39H35.21c8.08,0,13,4.95,13,11S43.09,36.29,36.76,36.41Z"/></svg>