<svg id="Camada_1" data-name="Camada 1" xmlns="http://www.w3.org/2000/svg" viewBox="0 0 142.51 30"><defs><style>.cls-1{fill:#fff;}</style></defs><rect class="cls-1" x="-5458.59" y="-1534.25" width="12135" height="6733"/><path class="cls-1" d="M117.91,14.93v6c0,2.43,0,4.87,0,7.3A1.6,1.6,0,0,0,119.54,30h6.24a1.51,1.51,0,0,0,1.53-1.29,2.27,2.27,0,0,0-.13-1.09c-.73-2-1.49-4.06-2.23-6.08-.22-.58-.09-.8.47-1s.69.17.84.57c.9,2.46,1.81,4.91,2.72,7.37a1.92,1.92,0,0,0,2.2,1.51h9.36c1.39,0,2-.57,2-2V9.47c0-2.58,0-5.16,0-7.74A1.58,1.58,0,0,0,140.79,0h-6a1.46,1.46,0,0,0-1.52,1,2.32,2.32,0,0,0,0,1.38c.7,2,1.47,4.06,2.22,6.08.16.42.2.74-.32,1s-.79,0-1-.48c-.91-2.5-1.83-5-2.76-7.49A1.86,1.86,0,0,0,129.34,0h-9.43c-1.43,0-2,.57-2,2ZM54,12c0-3.39,0-6.79,0-10.18A1.56,1.56,0,0,0,52.46,0C50.3,0,48.14,0,46,0a1.54,1.54,0,0,0-1.49,1.2,3.64,3.64,0,0,0,0,.74c0,2.31,0,4.62,0,6.93,0,.41,0,.75-.58.78s-.79-.1-.79-.73c0-2.38,0-4.75,0-7.12A1.62,1.62,0,0,0,41.22,0h-10a1.6,1.6,0,0,0-1.75,1.75c0,6.62,0,13.23,0,19.85A8.46,8.46,0,0,0,38,30h7.25A8.46,8.46,0,0,0,54,21.2C54,18.12,54,15,54,12Zm34.43,3V28.17A1.61,1.61,0,0,0,90.22,30h21A1.63,1.63,0,0,0,113,28.14c0-1.95,0-3.91,0-5.87,0-1.34-.58-1.92-1.94-1.92-2.79,0-5.58,0-8.37,0-.5,0-.78-.16-.78-.71s.3-.69.8-.69c1.56,0,3.12,0,4.68,0a1.61,1.61,0,0,0,1.74-1.76c0-1.41,0-2.83,0-4.24s-.58-1.87-1.86-1.87h-4.62c-.49,0-.73-.19-.74-.7s.28-.7.79-.69h8.42A1.66,1.66,0,0,0,113,7.83c0-2,0-3.95,0-5.93,0-1.3-.6-1.89-1.91-1.89H90.34C89,0,88.42.59,88.42,2ZM24.5,20.59c0-2.56,0-5.12,0-7.68a1.6,1.6,0,0,0-1.81-1.8H16.82c-1.33,0-1.92.59-1.92,2v6.43c0,.46,0,.82-.64.83s-.74-.3-.74-.82c0-2.91,0-5.83,0-8.74,0-.8.24-1,1.06-1H20a1.65,1.65,0,0,0,1.83-1.87c0-2,0-3.95,0-5.93C21.86.61,21.27,0,20,0H8.74A8.48,8.48,0,0,0,0,8.76Q0,15,0,21.31a15.66,15.66,0,0,0,.12,2.05A6.57,6.57,0,0,0,4.6,29.15a13.57,13.57,0,0,0,4.13.8c4.66.09,9.32,0,14,0,1.25,0,1.79-.53,1.79-1.78ZM71.26,0H60.71A1.6,1.6,0,0,0,59,1.7c0,2.08,0,4.16,0,6.24a1.6,1.6,0,0,0,1.73,1.71h2.62c1,0,1.06,0,1.06,1V28c0,1.43.57,2,2,2h9.49c1.61,0,2.13-.51,2.13-2.13V13.24c0-.2,0-.41,0-.62A1.55,1.55,0,0,0,76.4,11.1c-.63,0-1.25,0-1.88,0-.44,0-.63-.2-.65-.64s.19-.75.74-.74h7.18a1.5,1.5,0,0,0,1.67-1.65c0-2.06,0-4.12,0-6.18A1.64,1.64,0,0,0,81.62,0Z"/><path d="M117.91,14.93V2c0-1.43.57-2,2-2h9.43a1.86,1.86,0,0,1,2.07,1.42c.93,2.5,1.85,5,2.76,7.49.19.5.43.71,1,.48s.48-.54.32-1c-.75-2-1.52-4-2.22-6.08a2.32,2.32,0,0,1,0-1.38,1.46,1.46,0,0,1,1.52-1h6a1.58,1.58,0,0,1,1.71,1.72c0,2.58,0,5.16,0,7.74V28c0,1.4-.57,2-2,2h-9.36a1.92,1.92,0,0,1-2.2-1.51c-.91-2.46-1.82-4.91-2.72-7.37-.15-.4-.3-.75-.84-.57s-.69.41-.47,1c.74,2,1.5,4.05,2.23,6.08a2.27,2.27,0,0,1,.13,1.09A1.51,1.51,0,0,1,125.78,30h-6.24a1.6,1.6,0,0,1-1.63-1.75c0-2.43,0-4.87,0-7.3Z"/><path d="M54,12c0,3.08,0,6.16,0,9.24A8.46,8.46,0,0,1,45.23,30H38a8.46,8.46,0,0,1-8.49-8.37c0-6.62,0-13.23,0-19.85A1.6,1.6,0,0,1,31.23,0h10A1.62,1.62,0,0,1,43,1.81c0,2.37,0,4.74,0,7.12,0,.63.16.75.79.73s.58-.37.58-.78c0-2.31,0-4.62,0-6.93a3.64,3.64,0,0,1,0-.74A1.54,1.54,0,0,1,46,0c2.17,0,4.33,0,6.49,0A1.56,1.56,0,0,1,54,1.78C54,5.17,54,8.57,54,12Z"/><path d="M88.42,15V2C88.42.59,89,0,90.34,0h20.78C112.43,0,113,.6,113,1.9c0,2,0,4,0,5.93a1.66,1.66,0,0,1-1.88,1.88h-8.42c-.51,0-.8.13-.79.69s.25.7.74.7h4.62c1.28,0,1.86.59,1.86,1.87s0,2.83,0,4.24A1.61,1.61,0,0,1,107.42,19c-1.56,0-3.12,0-4.68,0-.5,0-.8.12-.8.69s.28.71.78.71c2.79,0,5.58,0,8.37,0,1.36,0,1.94.58,1.94,1.92,0,2,0,3.92,0,5.87A1.63,1.63,0,0,1,111.19,30h-21a1.61,1.61,0,0,1-1.8-1.81Z"/><path d="M24.5,20.59V28.2C24.5,29.45,24,30,22.71,30c-4.66,0-9.32.06-14,0a13.57,13.57,0,0,1-4.13-.8A6.57,6.57,0,0,1,.13,23.36,15.66,15.66,0,0,1,0,21.31Q0,15,0,8.76A8.48,8.48,0,0,1,8.74,0H20c1.3,0,1.89.6,1.89,1.91,0,2,0,4,0,5.93A1.65,1.65,0,0,1,20,9.72H14.59c-.82,0-1.06.23-1.06,1,0,2.91,0,5.83,0,8.74,0,.52.14.83.74.82s.65-.37.64-.83V13.06c0-1.36.59-2,1.92-2h5.87a1.6,1.6,0,0,1,1.81,1.8C24.51,15.47,24.5,18,24.5,20.59Z"/><path d="M71.26,0H81.62A1.64,1.64,0,0,1,83.5,1.88c0,2.06,0,4.12,0,6.18a1.5,1.5,0,0,1-1.67,1.65H74.61c-.55,0-.76.21-.74.74s.21.65.65.64c.63,0,1.25,0,1.88,0A1.55,1.55,0,0,1,78,12.62c0,.21,0,.42,0,.62V27.85c0,1.62-.52,2.13-2.13,2.13H66.38c-1.44,0-2-.56-2-2V10.69c0-1,0-1-1.06-1H60.69A1.6,1.6,0,0,1,59,7.94c0-2.08,0-4.16,0-6.24A1.6,1.6,0,0,1,60.71,0Z"/></svg>