<svg id="Camada_1" data-name="Camada 1" xmlns="http://www.w3.org/2000/svg" viewBox="0 0 189.23 40"><defs><style>.cls-1{fill:#fff;}.cls-2{fill:#231f20;}</style></defs><rect class="cls-1" x="-5643.41" y="-1529.25" width="12135" height="6733"/><path class="cls-2" d="M40,37.07V2.93A2.93,2.93,0,0,0,37.07,0H2.93A2.93,2.93,0,0,0,0,2.93V40H37.07A2.93,2.93,0,0,0,40,37.07ZM11.86,33.73a2,2,0,0,1-2.13-1.8,2,2,0,0,1,2.13-1.79A2,2,0,0,1,14,31.93,2,2,0,0,1,11.86,33.73ZM33.17,16.86c0,5.58-5.41,10.05-12.06,10.06a13.75,13.75,0,0,1-6-1.33l-.07,0a.12.12,0,0,0-.11.09h0a3.89,3.89,0,0,1-4,3c-2.23,0-4.06-1.51-4.06-3.41a3.68,3.68,0,0,1,3.56-3.38h.05a.11.11,0,0,0,.09-.1.43.43,0,0,0,0-.05l0,0A8.79,8.79,0,0,1,9,16.86c0-5.58,5.42-10,12.07-10.06s12.06,4.49,12.07,10.06Z"/><path class="cls-2" d="M50.92,12.62a1.93,1.93,0,1,0-2-1.93,1.95,1.95,0,0,0,2,1.93"/><path class="cls-2" d="M52.31,14.81H50.75a1.43,1.43,0,0,0-1.43,1.42v11.7a.22.22,0,0,0,.06.15.24.24,0,0,0,.16.07h2.77a.24.24,0,0,0,.16-.07.22.22,0,0,0,.06-.15V15a.21.21,0,0,0-.06-.16.24.24,0,0,0-.16-.07"/><path class="cls-2" d="M109.45,10.69a2,2,0,1,0-2,1.93,1.94,1.94,0,0,0,2-1.93"/><path class="cls-2" d="M105.94,14.88a.2.2,0,0,0-.06.15v12.9a.22.22,0,0,0,.06.15.25.25,0,0,0,.16.06h2.78a.22.22,0,0,0,.15-.06.23.23,0,0,0,.07-.15V16.22a1.43,1.43,0,0,0-1.44-1.41H106.1a.26.26,0,0,0-.16.07"/><path class="cls-2" d="M153.43,10.69a2,2,0,1,0-2,1.93,1.94,1.94,0,0,0,2-1.93"/><path class="cls-2" d="M149.93,14.88a.18.18,0,0,0-.07.15v12.9a.19.19,0,0,0,.07.15.2.2,0,0,0,.15.06h2.78a.21.21,0,0,0,.21-.21V16.22a1.43,1.43,0,0,0-1.43-1.41h-1.56a.21.21,0,0,0-.15.07"/><path class="cls-2" d="M189.22,18.63a4.16,4.16,0,0,0-1-2.93,4,4,0,0,0-3.11-1.46,3.73,3.73,0,0,0-3.23,1.62.78.78,0,0,1-.61.37.67.67,0,0,1-.54-.32,4.23,4.23,0,0,0-1.13-1.1,3.87,3.87,0,0,0-2-.56,4,4,0,0,0-3,1.24,4.82,4.82,0,0,1-.55.63.65.65,0,0,1-.38.11.59.59,0,0,1-.44-.22,1.3,1.3,0,0,1-.2-.45,1.22,1.22,0,0,0-1.25-.79h-1.08a.21.21,0,0,0-.16.07.2.2,0,0,0-.06.15V27.91a.23.23,0,0,0,.06.16.26.26,0,0,0,.16.07h2.74a.24.24,0,0,0,.23-.22V19.45a3.61,3.61,0,0,1,.17-1.13,2.2,2.2,0,0,1,2.17-1.5,2.25,2.25,0,0,1,1.83.88,3.59,3.59,0,0,1,.41,2.14v8.09a.23.23,0,0,0,.07.15.24.24,0,0,0,.16.07h2.7a.24.24,0,0,0,.16-.07.17.17,0,0,0,.06-.15s0-8.39,0-8.39a2.66,2.66,0,0,1,.92-2.28,2.17,2.17,0,0,1,1.42-.44h.06a2.12,2.12,0,0,1,1.8,1,3.92,3.92,0,0,1,.39,2.27V26.7a1.44,1.44,0,0,0,1.45,1.44H189a.24.24,0,0,0,.23-.23s0-9,0-9.28"/><path class="cls-2" d="M123.28,18.32a4.11,4.11,0,0,0-.8-2.48,3.94,3.94,0,0,0-3.07-1.59,3.69,3.69,0,0,0-3,1.26,2.29,2.29,0,0,1-.54.61.57.57,0,0,1-.38.11.58.58,0,0,1-.44-.21,1.46,1.46,0,0,1-.2-.46,1.22,1.22,0,0,0-1.25-.78h-1.07a.21.21,0,0,0-.16.06.24.24,0,0,0-.07.16V27.92a.24.24,0,0,0,.07.16.21.21,0,0,0,.16.06h2.73a.23.23,0,0,0,.16-.06.2.2,0,0,0,.07-.16V19.45a3,3,0,0,1,.18-1.15,2.32,2.32,0,0,1,4-.59,3.57,3.57,0,0,1,.41,2.14l0,6.86a1.43,1.43,0,0,0,1.44,1.43h1.5a.28.28,0,0,0,.16-.06.26.26,0,0,0,.07-.16s0-9.57,0-9.6"/><path class="cls-2" d="M156.36,24.6a4.2,4.2,0,0,0,.8,2.49,4,4,0,0,0,3.08,1.58,3.68,3.68,0,0,0,3-1.25,3.08,3.08,0,0,1,.54-.62.67.67,0,0,1,.39-.11.55.55,0,0,1,.43.22,1.26,1.26,0,0,1,.2.46,1.23,1.23,0,0,0,1.25.78h1.08a.21.21,0,0,0,.16-.07.2.2,0,0,0,.06-.15V15a.25.25,0,0,0-.06-.16.26.26,0,0,0-.16-.07h-2.74a.2.2,0,0,0-.16.07.2.2,0,0,0-.06.15v8.47a3.49,3.49,0,0,1-.18,1.16,2.34,2.34,0,0,1-.75,1,2.38,2.38,0,0,1-3.24-.43,3.5,3.5,0,0,1-.41-2.13V16.21a1.46,1.46,0,0,0-1.47-1.43h-1.5a.21.21,0,0,0-.22.22V24.6"/><path class="cls-2" d="M74.45,18.63a4.12,4.12,0,0,0-1-2.93,4,4,0,0,0-3.1-1.46,3.77,3.77,0,0,0-3.24,1.62.73.73,0,0,1-.6.37.71.71,0,0,1-.55-.32,4.11,4.11,0,0,0-1.11-1.1,4,4,0,0,0-5,.68,4.82,4.82,0,0,1-.55.63.66.66,0,0,1-.38.11.59.59,0,0,1-.44-.22,1.52,1.52,0,0,1-.2-.45,1.22,1.22,0,0,0-1.25-.79H56a.21.21,0,0,0-.16.07.2.2,0,0,0-.06.15V27.91a.23.23,0,0,0,.06.16.26.26,0,0,0,.16.07h2.74a.2.2,0,0,0,.16-.07.21.21,0,0,0,.07-.15V19.45a3.61,3.61,0,0,1,.17-1.13,2.33,2.33,0,0,1,4-.62,3.59,3.59,0,0,1,.41,2.14v8.09a.23.23,0,0,0,.07.15.24.24,0,0,0,.16.07h2.7a.24.24,0,0,0,.16-.07.19.19,0,0,0,.07-.15V19.54a2.66,2.66,0,0,1,.92-2.28,2.17,2.17,0,0,1,1.42-.44h.06a2.13,2.13,0,0,1,1.8,1,4,4,0,0,1,.39,2.27V26.7a1.44,1.44,0,0,0,1.45,1.44h1.48a.24.24,0,0,0,.23-.23s0-9,0-9.28"/><path class="cls-2" d="M84.85,23.4a3.67,3.67,0,0,1-.16,1A2.64,2.64,0,0,1,82,26.2,2.17,2.17,0,0,1,79.86,24a2.14,2.14,0,0,1,1.39-2,8.83,8.83,0,0,1,3.2-.53.46.46,0,0,1,.29.11.44.44,0,0,1,.11.29ZM87.93,28a.29.29,0,0,0,0-.1s0-.06,0-.08c-.06-.52-.09-3.9-.11-6V20.08a6,6,0,0,0-1-4,5.89,5.89,0,0,0-4.6-1.79,10.45,10.45,0,0,0-4.32,1.11.27.27,0,0,0-.14.3l.52,1.73a.25.25,0,0,0,.14.16.3.3,0,0,0,.21,0,7.26,7.26,0,0,1,2.81-.84,4.08,4.08,0,0,1,2.45.49,2,2,0,0,1,.69.86,2.26,2.26,0,0,1,.16.77V19a.34.34,0,0,1-.12.27.36.36,0,0,1-.26.11l-1,0a11.23,11.23,0,0,0-3.51.64,4.44,4.44,0,0,0-3.08,4.2,4.05,4.05,0,0,0,4.18,4.25A4.31,4.31,0,0,0,84.36,27a.73.73,0,0,1,.53-.32c.29,0,.41.14.52.39.32.72.53,1.12,1.53,1.12h.79a.25.25,0,0,0,.2-.13"/><path class="cls-2" d="M133.64,23.4a3.67,3.67,0,0,1-.16,1,2.64,2.64,0,0,1-2.73,1.77,2.17,2.17,0,0,1-2.1-2.18A2.14,2.14,0,0,1,130,22a8.79,8.79,0,0,1,3.2-.53.46.46,0,0,1,.29.11.44.44,0,0,1,.11.29Zm3.08,4.6a.29.29,0,0,0,0-.1s0-.06,0-.08c-.06-.52-.11-7.74-.11-7.74a6,6,0,0,0-1-4A5.9,5.9,0,0,0,131,14.27a10.44,10.44,0,0,0-4.31,1.11.25.25,0,0,0-.14.3l.52,1.73a.25.25,0,0,0,.14.16.28.28,0,0,0,.2,0,7.32,7.32,0,0,1,2.82-.84,4.1,4.1,0,0,1,2.45.49,2,2,0,0,1,.69.86,2.23,2.23,0,0,1,.15.77.9.9,0,0,1,0,.17.31.31,0,0,1-.11.27.36.36,0,0,1-.26.11l-1,0a11.3,11.3,0,0,0-3.52.64,4.45,4.45,0,0,0-3.07,4.2,4.05,4.05,0,0,0,4.18,4.25A4.31,4.31,0,0,0,133.15,27a.73.73,0,0,1,.52-.32c.29,0,.41.14.53.39.32.72.53,1.12,1.52,1.12h.8a.25.25,0,0,0,.2-.13"/><path class="cls-2" d="M147.55,14.77a.25.25,0,0,0-.21-.24,3.57,3.57,0,0,0-.46,0,4.33,4.33,0,0,0-3.5,1.63.69.69,0,0,1-.39.11.6.6,0,0,1-.44-.21,1.21,1.21,0,0,1-.19-.46,1.24,1.24,0,0,0-1.26-.78H140a.23.23,0,0,0-.16.06.23.23,0,0,0-.07.15V27.92a.24.24,0,0,0,.07.16.23.23,0,0,0,.16.06h2.74a.2.2,0,0,0,.15-.06.2.2,0,0,0,.07-.16V20.24A2.65,2.65,0,0,1,144,18a2.8,2.8,0,0,1,1.93-.63,12.58,12.58,0,0,1,1.4.12.25.25,0,0,0,.26-.26V14.78h0Z"/><path class="cls-2" d="M99.46,22.05a3.9,3.9,0,0,1-.14,1.15,2.91,2.91,0,0,1-2.76,2c-2.09,0-3.24-1.8-3.24-4,0-2.65,1.39-4.26,3.27-4.26a3,3,0,0,1,2.2,1,3.14,3.14,0,0,1,.56,1.09,4.34,4.34,0,0,1,.11.88Zm3.19-7.21a.27.27,0,0,0-.18-.08h-.9a1.28,1.28,0,0,0-1.33.91.75.75,0,0,1-.64.54.67.67,0,0,1-.53-.29,4.52,4.52,0,0,0-3.58-1.66c-3.08,0-5.36,2.64-5.36,7,0,3.66,1.87,6.61,5.31,6.61a4.65,4.65,0,0,0,3.49-1.57.43.43,0,0,1,.33-.13.59.59,0,0,1,.37.17.61.61,0,0,1,.14.42,5.07,5.07,0,0,1-.09,1.36A3.78,3.78,0,0,1,96.83,31a6.64,6.64,0,0,1-2.06.12A7.53,7.53,0,0,1,92,30.32a.26.26,0,0,0-.21,0,.26.26,0,0,0-.13.16l-.53,1.73a.26.26,0,0,0,.14.3,8.73,8.73,0,0,0,4.26,1h0l.6,0a11.89,11.89,0,0,0,1.56-.19,6.52,6.52,0,0,0,3.06-1.45c1.35-1.17,1.91-2.68,1.89-5.58l0-7.62c0-1.64,0-3.23.09-3.57a.32.32,0,0,0,0-.23"/></svg>