<svg id="Camada_1" data-name="Camada 1" xmlns="http://www.w3.org/2000/svg" viewBox="0 0 72 72"><defs><style>.cls-1{fill:#fff;}.cls-2{fill:none;stroke:#000;stroke-linecap:round;stroke-linejoin:round;stroke-width:2px;}</style></defs><rect class="cls-1" x="-5803.75" y="-1378.78" width="12135" height="6733"/><circle class="cls-2" cx="36" cy="36" r="35"/><path class="cls-2" d="M42.87,36.79l-10.17,5c-.39.21-1.75-.07-1.75-.53V31c0-.46,1.37-.75,1.76-.52l9.73,5.29c.41.24.84.83.43,1ZM56.2,30.72a8.87,8.87,0,0,0-8.87-8.86H24.67a8.87,8.87,0,0,0-8.87,8.86V41.27a8.87,8.87,0,0,0,8.87,8.87H47.33a8.87,8.87,0,0,0,8.87-8.87V30.72Z"/></svg>